<?xml version="1.0" standalone="no"?>
<!DOCTYPE svg PUBLIC "-//W3C//DTD SVG 20010904//EN"
 "http://www.w3.org/TR/2001/REC-SVG-20010904/DTD/svg10.dtd">
<svg version="1.0" xmlns="http://www.w3.org/2000/svg"
 width="512.000000pt" height="512.000000pt" viewBox="0 0 512.000000 512.000000"
 preserveAspectRatio="xMidYMid meet">
<metadata>
Created by potrace 1.11, written by Peter Selinger 2001-2013
</metadata>
<g transform="translate(0.000000,512.000000) scale(0.100000,-0.100000)"
fill="#000000" stroke="none">
<path d="M953 4985 c-177 -41 -323 -183 -367 -357 -23 -92 -24 -794 -1 -882
46 -177 181 -312 361 -361 43 -11 -8 -13 -386 -13 -239 0 -452 -1 -473 -1 -41
-1 -87 -39 -87 -72 0 -57 42 -89 115 -89 l45 0 0 -487 0 -488 -55 -1 c-83 -2
-117 -41 -95 -109 8 -25 20 -36 43 -44 20 -6 212 -10 500 -10 258 1 471 -2
474 -5 4 -3 -10 -6 -29 -6 -94 0 -308 -86 -431 -174 -174 -124 -325 -346 -373
-547 -36 -150 -38 -330 -4 -466 12 -49 27 -94 32 -100 6 -7 8 -13 5 -13 -19 0
90 -196 147 -265 23 -27 48 -58 56 -68 20 -25 144 -126 195 -158 51 -33 138
-73 213 -98 150 -50 80 -49 2143 -49 1875 0 1929 0 1966 19 120 60 117 232 -5
289 -24 11 -47 18 -51 15 -5 -3 -11 1 -13 8 -2 6 -4 300 -4 652 l1 639 34 7
c112 23 165 165 95 256 -45 59 -69 64 -328 65 l-231 1 56 17 c70 21 159 79
199 130 42 53 81 141 89 203 4 29 6 176 5 327 -1 215 -4 286 -16 325 -42 136
-137 234 -268 276 -30 10 -50 18 -45 19 6 1 129 2 275 3 257 2 266 3 302 25
51 32 83 99 74 158 -11 85 -72 136 -169 140 -33 2 -62 6 -65 9 -4 3 -7 222 -7
486 0 474 0 479 20 480 113 3 163 23 195 74 51 82 25 190 -55 230 -40 20 -61
20 -2035 21 -1534 1 -2007 -2 -2047 -11z"/>
</g>
</svg>
